<svg aria-hidden="true" style="position: absolute; width: 0; height: 0; overflow: hidden;" version="1.1" xmlns="http://www.w3.org/2000/svg" xmlns:xlink="http://www.w3.org/1999/xlink">
<defs>
<symbol id="icon-untitled" viewBox="0 0 120 32">
<path fill="#333" style="fill: var(--color1, #333)" d="M29.296 24.631h2.422v-17.93h6.188v-1.992h-8.61v19.922zM41.935 23.583c0.352-0.601 0.679-1.285 0.837-1.973 0.225-0.955 0.262-2.669 0.318-2.889 0.038-0.147 0.056-4.154 0.056-12.020l4.722 0.009v18.017h2.39v-20.018h-9.358v14.013c-0.018 0.757-0.207 1.726-0.374 2.461-0.117 0.515-0.113 0.698-0.374 1.149-0.192 0.335-0.769 0.7-1.097 0.88-0.316 0.157-0.66 0.236-1.009 0.231v1.285c0.145 0.064 0.297 0.112 0.451 0.143 0.373 0.102 0.757 0.15 1.141 0.143 0.432-0.002 0.857-0.12 1.235-0.343 0.433-0.264 0.798-0.637 1.062-1.087zM56.696 13.687c-0.567-0.627-0.85-1.691-0.851-3.193s0.284-2.565 0.851-3.192c0.567-0.627 1.473-0.941 2.717-0.941h1.92v8.267h-1.92c-1.244-0-2.15-0.314-2.717-0.941zM55.844 17.020c-0.406 0.662-0.686 1.397-0.823 2.166l-0.548 2.423c-0.113 0.504-0.349 0.97-0.686 1.354-0.416 0.37-0.961 0.55-1.509 0.498v1.285c0.171 0.059 0.345 0.106 0.521 0.142 0.367 0.1 0.745 0.148 1.125 0.142 1.555 0 2.607-1.14 3.156-3.421l0.549-2.423c0.238-0.988 0.594-1.662 1.070-2.024 0.44-0.348 0.98-0.539 1.536-0.541h1.098v8.123h2.47v-19.667c-0.686-0.207-1.389-0.355-2.099-0.442-0.761-0.089-1.526-0.132-2.291-0.128-0.943-0.019-1.885 0.092-2.8 0.328-0.701 0.18-1.344 0.543-1.866 1.055-0.497 0.521-0.856 1.164-1.044 1.867-0.236 0.892-0.347 1.813-0.329 2.736-0.014 0.764 0.097 1.525 0.329 2.252 0.191 0.592 0.479 1.146 0.851 1.639 0.324 0.427 0.731 0.781 1.193 1.040 0.415 0.235 0.864 0.399 1.331 0.485v0.115c-0.509 0.178-0.945 0.529-1.234 0.995zM75.83 4.709v8.823h-5.846v-8.823h-2.505v19.922h2.505v-9.107h5.846v9.107h2.505v-19.922h-2.505zM84.556 15.239h6.055v-1.992h-6.055v-6.546h6.881v-1.992h-9.358v19.922h9.358v-1.992h-6.88v-7.4zM105.258 28.845h1.527v-6.247h-1.804v-17.889h-2.499v17.889h-5.551v-17.889h-2.499v19.877h9.993c0.080 1.452 0.36 2.886 0.834 4.26zM113.748 14.628c1.244 0 2.15 0.318 2.717 0.955s0.85 1.743 0.851 3.32c0 1.577-0.284 2.684-0.851 3.32s-1.473 0.955-2.717 0.955h-1.92v-8.551h1.92zM111.889 12.858v-8.15h-2.483v19.731c0.69 0.208 1.395 0.356 2.11 0.443 0.764 0.089 1.533 0.132 2.303 0.129 0.949 0.020 1.895-0.096 2.813-0.343 0.704-0.189 1.349-0.558 1.875-1.072 0.503-0.531 0.864-1.186 1.048-1.901 0.238-0.923 0.35-1.876 0.331-2.831 0-2.288-0.428-3.908-1.283-4.861s-2.174-1.43-3.958-1.43c-0.478 0.003-0.956 0.032-1.432 0.086-0.445 0.043-0.887 0.11-1.325 0.2z"></path>
<path fill="#ffe30b" style="fill: var(--color2, #ffe30b)" d="M14.283 4.507c-6.53 2.188-12.037 6.649-14.283 13.296 2.22 6.571 7.676 11.082 14.283 13.296 5.875-4.501 9.079-8.115 11.436-13.296-3.383-2.257-4.804-3.419-7.547-6.911-3.675 1.696-6.873 3.672-9.707 6.839 1.017 1.439 2.705 2.783 4.070 3.886 1.989-1.453 3.506-2.868 4.489-4.082 0.616 0.748 1.311 1.246 1.973 1.662-1.709 2.889-3.627 4.476-5.996 5.991-3.558-1.872-6.418-5.111-7.808-7.85 2.605-4.268 6.691-7.15 11.335-8.756-0.752-1.309-1.738-2.528-2.244-4.074z"></path>
<path fill="#333" style="fill: var(--color1, #333)" d="M30.538 30.262c0.687 0 1.163-0.53 1.163-1.374 0-0.849-0.476-1.368-1.163-1.368-0.368 0-0.692 0.189-0.882 0.454v-0.389h-0.406v3.607h0.406v-1.39c0.211 0.292 0.525 0.46 0.882 0.46zM30.435 29.9c-0.319 0-0.638-0.195-0.779-0.422v-1.179c0.141-0.227 0.46-0.416 0.779-0.416 0.525 0 0.838 0.427 0.838 1.006s-0.314 1.011-0.838 1.011z"></path>
<path fill="#333" style="fill: var(--color1, #333)" d="M33.487 30.262c0.795 0 1.293-0.617 1.293-1.374s-0.498-1.368-1.293-1.368c-0.795 0-1.293 0.611-1.293 1.368s0.498 1.374 1.293 1.374zM33.487 29.9c-0.557 0-0.871-0.476-0.871-1.011 0-0.53 0.314-1.006 0.871-1.006s0.865 0.476 0.865 1.006c0 0.535-0.308 1.011-0.865 1.011z"></path>
<path fill="#333" style="fill: var(--color1, #333)" d="M36.366 30.262c0.752 0 1.195-0.325 1.195-0.763 0-0.433-0.454-0.617-0.757-0.638 0.308-0.038 0.703-0.249 0.703-0.638 0-0.444-0.498-0.703-1.201-0.698-0.476 0-0.828 0.168-1.071 0.416l0.211 0.249c0.222-0.227 0.508-0.335 0.876-0.335 0.433 0 0.763 0.168 0.763 0.416 0 0.297-0.341 0.438-0.773 0.438h-0.584v0.33h0.584c0.46 0 0.822 0.108 0.822 0.433 0 0.276-0.303 0.454-0.768 0.454-0.389 0-0.736-0.119-0.979-0.352l-0.2 0.26c0.26 0.26 0.654 0.427 1.179 0.427z"></path>
<path fill="#333" style="fill: var(--color1, #333)" d="M39.506 30.262c0.687 0 1.163-0.53 1.163-1.374 0-0.849-0.476-1.368-1.163-1.368-0.368 0-0.692 0.189-0.882 0.454v-0.389h-0.406v3.607h0.406v-1.39c0.211 0.292 0.525 0.46 0.882 0.46zM39.404 29.9c-0.319 0-0.638-0.195-0.779-0.422v-1.179c0.141-0.227 0.46-0.416 0.779-0.416 0.525 0 0.838 0.427 0.838 1.006s-0.314 1.011-0.838 1.011z"></path>
<path fill="#333" style="fill: var(--color1, #333)" d="M42.455 30.262c0.795 0 1.293-0.617 1.293-1.374s-0.498-1.368-1.293-1.368c-0.795 0-1.293 0.611-1.293 1.368s0.498 1.374 1.293 1.374zM42.455 29.9c-0.557 0-0.871-0.476-0.871-1.011 0-0.53 0.314-1.006 0.871-1.006s0.865 0.476 0.865 1.006c0 0.535-0.308 1.011-0.865 1.011z"></path>
<path fill="#333" style="fill: var(--color1, #333)" d="M45.55 29.9c-0.557 0-0.871-0.476-0.871-1.017 0-0.525 0.314-1.001 0.871-1.001s0.865 0.476 0.865 1.001c0 0.541-0.308 1.017-0.865 1.017zM45.55 30.262c0.806 0 1.287-0.627 1.287-1.379 0-0.741-0.481-1.363-1.222-1.363-0.465 0-0.795 0.26-0.984 0.557 0.092-0.444 0.325-0.779 1.098-0.887 0.444-0.059 1.028-0.173 1.028-0.6h-0.395c0 0.108-0.162 0.178-0.736 0.265-0.909 0.119-1.368 0.644-1.368 1.915 0 0.865 0.492 1.493 1.293 1.493z"></path>
<path fill="#333" style="fill: var(--color1, #333)" d="M49.829 30.197l-1.163-1.428 1.157-1.184h-0.514l-1.374 1.39v-1.39h-0.406v2.612h0.406v-0.746l0.433-0.427 0.941 1.174h0.519z"></path>
<path fill="#333" style="fill: var(--color1, #333)" d="M52.348 30.197v-1.796c0-0.633-0.46-0.882-1.011-0.882-0.427 0-0.763 0.141-1.044 0.433l0.189 0.281c0.233-0.249 0.487-0.362 0.8-0.362 0.379 0 0.66 0.2 0.66 0.552v0.471c-0.211-0.243-0.508-0.357-0.865-0.357-0.444 0-0.914 0.276-0.914 0.86 0 0.568 0.471 0.865 0.914 0.865 0.352 0 0.649-0.124 0.865-0.362v0.297h0.406zM51.223 29.97c-0.379 0-0.644-0.238-0.644-0.568 0-0.335 0.265-0.573 0.644-0.573 0.287 0 0.562 0.108 0.719 0.325v0.492c-0.157 0.216-0.433 0.325-0.719 0.325z"></path>
<path fill="#333" style="fill: var(--color1, #333)" d="M55.437 30.197v-2.255h0.763v-0.357h-1.925v0.357h0.757v2.255h0.406z"></path>
<path fill="#333" style="fill: var(--color1, #333)" d="M58.77 30.197v-1.796c0-0.633-0.46-0.882-1.011-0.882-0.427 0-0.763 0.141-1.044 0.433l0.189 0.281c0.233-0.249 0.487-0.362 0.8-0.362 0.379 0 0.66 0.2 0.66 0.552v0.471c-0.211-0.243-0.508-0.357-0.865-0.357-0.444 0-0.914 0.276-0.914 0.86 0 0.568 0.471 0.865 0.914 0.865 0.352 0 0.649-0.124 0.865-0.362v0.297h0.406zM57.646 29.97c-0.379 0-0.644-0.238-0.644-0.568 0-0.335 0.265-0.573 0.644-0.573 0.287 0 0.562 0.108 0.719 0.325v0.492c-0.157 0.216-0.433 0.325-0.719 0.325z"></path>
<path fill="#333" style="fill: var(--color1, #333)" d="M63.152 30.197v-2.612h-2.174v2.612h0.406v-2.255h1.363v2.255h0.406z"></path>
<path fill="#333" style="fill: var(--color1, #333)" d="M64.162 27.212c0.151 0 0.276-0.119 0.276-0.27s-0.124-0.276-0.276-0.276c-0.146 0-0.27 0.124-0.27 0.276s0.124 0.27 0.27 0.27zM64.368 30.197v-2.612h-0.406v2.612h0.406z"></path>
<path fill="#333" style="fill: var(--color1, #333)" d="M64.868 30.862h0.406v-0.665h1.974v0.665h0.406v-1.022h-0.303v-2.255h-1.817l-0.168 1.287c-0.103 0.773-0.254 0.946-0.498 0.99v1.001zM65.891 27.942h1.055v1.898h-1.552c0.189-0.151 0.314-0.427 0.379-0.919l0.119-0.979z"></path>
<path fill="#333" style="fill: var(--color1, #333)" d="M69.090 30.197v-2.255h0.763v-0.357h-1.925v0.357h0.757v2.255h0.406z"></path>
<path fill="#333" style="fill: var(--color1, #333)" d="M71.672 30.262c0.687 0 1.163-0.53 1.163-1.374 0-0.849-0.476-1.368-1.163-1.368-0.368 0-0.692 0.189-0.882 0.454v-0.389h-0.406v3.607h0.406v-1.39c0.211 0.292 0.525 0.46 0.882 0.46zM71.569 29.9c-0.319 0-0.638-0.195-0.779-0.422v-1.179c0.141-0.227 0.46-0.416 0.779-0.416 0.525 0 0.838 0.427 0.838 1.006s-0.314 1.011-0.838 1.011z"></path>
<path fill="#333" style="fill: var(--color1, #333)" d="M73.869 30.197l1.379-2.034v2.034h0.406v-2.612h-0.4l-1.368 1.996v-1.996h-0.406v2.612h0.389z"></path>
<path fill="#333" style="fill: var(--color1, #333)" d="M79.13 30.197v-2.612h-0.541l-0.79 1.936-0.8-1.936h-0.535v2.612h0.406v-2.050l0.855 2.050h0.151l0.849-2.050v2.050h0.406z"></path>
<path fill="#333" style="fill: var(--color1, #333)" d="M82.238 30.197l-1.163-1.428 1.157-1.184h-0.514l-1.374 1.39v-1.39h-0.406v2.612h0.406v-0.746l0.433-0.427 0.941 1.174h0.519z"></path>
<path fill="#333" style="fill: var(--color1, #333)" d="M84.756 30.197v-1.796c0-0.633-0.46-0.882-1.011-0.882-0.427 0-0.763 0.141-1.044 0.433l0.189 0.281c0.233-0.249 0.487-0.362 0.8-0.362 0.379 0 0.66 0.2 0.66 0.552v0.471c-0.211-0.243-0.508-0.357-0.865-0.357-0.444 0-0.914 0.276-0.914 0.86 0 0.568 0.471 0.865 0.914 0.865 0.352 0 0.649-0.124 0.865-0.362v0.297h0.406zM83.631 29.97c-0.379 0-0.644-0.238-0.644-0.568 0-0.335 0.265-0.573 0.644-0.573 0.287 0 0.562 0.108 0.719 0.325v0.492c-0.157 0.216-0.433 0.325-0.719 0.325z"></path>
<path fill="#333" style="fill: var(--color1, #333)" d="M88.116 30.262c0.476 0 0.757-0.195 0.957-0.454l-0.27-0.249c-0.173 0.233-0.395 0.341-0.665 0.341-0.557 0-0.903-0.433-0.903-1.011s0.346-1.006 0.903-1.006c0.27 0 0.492 0.103 0.665 0.341l0.27-0.249c-0.2-0.26-0.481-0.454-0.957-0.454-0.779 0-1.303 0.595-1.303 1.368 0 0.779 0.525 1.374 1.303 1.374z"></path>
<path fill="#333" style="fill: var(--color1, #333)" d="M91.68 30.197v-1.796c0-0.633-0.46-0.882-1.011-0.882-0.427 0-0.763 0.141-1.044 0.433l0.189 0.281c0.233-0.249 0.487-0.362 0.8-0.362 0.379 0 0.66 0.2 0.66 0.552v0.471c-0.211-0.243-0.508-0.357-0.865-0.357-0.444 0-0.914 0.276-0.914 0.86 0 0.568 0.471 0.865 0.914 0.865 0.352 0 0.649-0.124 0.865-0.362v0.297h0.406zM90.555 29.97c-0.379 0-0.644-0.238-0.644-0.568 0-0.335 0.265-0.573 0.644-0.573 0.287 0 0.562 0.108 0.719 0.325v0.492c-0.157 0.216-0.433 0.325-0.719 0.325z"></path>
<path fill="#333" style="fill: var(--color1, #333)" d="M92.883 30.197l1.379-2.034v2.034h0.406v-2.612h-0.4l-1.368 1.996v-1.996h-0.406v2.612h0.389zM94.527 26.812l-0.2-0.173c-0.168 0.243-0.433 0.389-0.746 0.389-0.319 0-0.579-0.151-0.752-0.389l-0.2 0.173c0.222 0.292 0.568 0.476 0.952 0.476 0.389 0 0.73-0.184 0.946-0.476z"></path>
<path fill="#333" style="fill: var(--color1, #333)" d="M96.359 30.197v-2.255h0.763v-0.357h-1.925v0.357h0.757v2.255h0.406z"></path>
<path fill="#333" style="fill: var(--color1, #333)" d="M97.854 27.212c0.151 0 0.276-0.119 0.276-0.27s-0.124-0.276-0.276-0.276c-0.146 0-0.27 0.124-0.27 0.276s0.124 0.27 0.27 0.27zM98.060 30.197v-2.612h-0.406v2.612h0.406z"></path>
<path fill="#333" style="fill: var(--color1, #333)" d="M100.334 30.197c0.481 0 0.763-0.287 0.763-0.709 0-0.297-0.211-0.573-0.476-0.638 0.222-0.070 0.422-0.281 0.422-0.595 0-0.395-0.276-0.671-0.736-0.671h-1.439v2.612h1.466zM100.253 29.84h-0.979v-0.806h0.979c0.276 0 0.422 0.195 0.422 0.406 0 0.249-0.162 0.4-0.422 0.4zM100.237 28.677h-0.963v-0.736h0.963c0.249 0 0.389 0.146 0.389 0.373 0 0.206-0.135 0.362-0.389 0.362z"></path>
<path fill="#333" style="fill: var(--color1, #333)" d="M114.414 4.056v-2.255h0.763v-0.357h-1.925v0.357h0.757v2.255h0.406z"></path>
<path fill="#333" style="fill: var(--color1, #333)" d="M118.375 4.056v-2.612h-0.541l-0.79 1.936-0.8-1.936h-0.535v2.612h0.406v-2.050l0.855 2.050h0.151l0.849-2.050v2.050h0.406z"></path>
</symbol>
<symbol id="icon-untitled1" viewBox="0 0 51 32">
<path fill="#000" style="fill: var(--color1, #000)" d="M0 0.242h50.909v15.758h-50.909v-15.758z"></path>
<path fill="#fff" style="fill: var(--color2, #fff); stroke: var(--color1, #000)" stroke="#000" stroke-linejoin="miter" stroke-linecap="butt" stroke-miterlimit="4" stroke-width="0.6399" d="M0.32 16.32h50.269v15.118h-50.269v-15.118z"></path>
<path fill="#fff" style="fill: var(--color2, #fff)" d="M9.214 5.333l-1.669 3.19-1.617-3.19h-1.504l2.399 4.361-0.052 0.068c-0.235 0.356-0.504 0.509-0.852 0.509-0.183 0-0.382-0.042-0.608-0.11l-0.339 1.044c0.339 0.136 0.669 0.204 0.991 0.204 0.817 0 1.538-0.458 2.043-1.375l2.59-4.701h-1.382z"></path>
<path fill="#fff" style="fill: var(--color2, #fff)" d="M15.203 11.273h1.599l-2.051-3.072 1.99-2.868h-1.486l-1.599 2.401h-1.008v-2.401h-1.399v5.939h1.399v-2.393h0.973l1.582 2.393z"></path>
<path fill="#fff" style="fill: var(--color2, #fff)" d="M20.095 5.333h-2.634v5.939h1.408v-1.638h1.226c1.625 0 2.642-0.823 2.642-2.147 0-1.332-1.017-2.155-2.642-2.155zM20.017 8.515h-1.147v-2.062h1.147c0.861 0 1.295 0.382 1.295 1.035 0 0.645-0.435 1.027-1.295 1.027z"></path>
<path fill="#fff" style="fill: var(--color2, #fff)" d="M28.019 11.273h1.478l-2.721-5.939h-1.391l-2.712 5.939h1.443l0.539-1.273h2.825l0.539 1.273zM25.108 8.956l0.965-2.274 0.965 2.274h-1.93z"></path>
<path fill="#fff" style="fill: var(--color2, #fff)" d="M30.095 4.807c0.339 0 0.6-0.238 0.6-0.585s-0.261-0.585-0.6-0.585c-0.339 0-0.608 0.238-0.608 0.585s0.269 0.585 0.608 0.585zM31.851 4.807c0.339 0 0.608-0.238 0.608-0.585s-0.269-0.585-0.608-0.585c-0.33 0-0.6 0.238-0.6 0.585s0.269 0.585 0.6 0.585zM30.269 11.273h1.408v-5.939h-1.408v5.939z"></path>
<path fill="#fff" style="fill: var(--color2, #fff)" d="M37.328 5.333v2.342h-2.764v-2.342h-1.408v5.939h1.408v-2.435h2.764v2.435h1.408v-5.939h-1.408z"></path>
<path fill="#fff" style="fill: var(--color2, #fff)" d="M44.919 11.273h1.478l-2.721-5.939h-1.391l-2.712 5.939h1.443l0.539-1.273h2.825l0.539 1.273zM42.007 8.956l0.965-2.274 0.965 2.274h-1.93z"></path>
<path fill="#000" style="fill: var(--color1, #000)" d="M9.893 21.091h-4.294v5.939h1.399l-0.009-4.819h2.894l0.009-1.12z"></path>
<path fill="#000" style="fill: var(--color1, #000)" d="M13.385 21.091h-2.634v5.939h1.408v-1.638h1.226c1.625 0 2.642-0.823 2.642-2.147 0-1.332-1.017-2.155-2.642-2.155zM13.307 24.273h-1.147v-2.062h1.147c0.86 0 1.295 0.382 1.295 1.035 0 0.645-0.435 1.027-1.295 1.027z"></path>
<path fill="#000" style="fill: var(--color1, #000)" d="M19.944 27.133c1.912 0 3.329-1.298 3.329-3.072s-1.417-3.072-3.329-3.072c-1.921 0-3.329 1.307-3.329 3.072s1.408 3.072 3.329 3.072zM19.944 25.962c-1.087 0-1.904-0.772-1.904-1.901s0.817-1.901 1.904-1.901c1.086 0 1.904 0.772 1.904 1.901s-0.817 1.901-1.904 1.901z"></path>
<path fill="#000" style="fill: var(--color1, #000)" d="M31.216 27.031l-0.009-5.939h-1.165l-2.242 3.691-2.277-3.691h-1.165v5.939h1.321v-3.487l1.791 2.859h0.626l1.791-2.927 0.009 3.555h1.321z"></path>
<path fill="#000" style="fill: var(--color1, #000)" d="M37.386 27.031h1.478l-2.721-5.939h-1.391l-2.712 5.939h1.443l0.539-1.273h2.825l0.539 1.273zM34.474 24.714l0.965-2.274 0.965 2.274h-1.93z"></path>
<path fill="#000" style="fill: var(--color1, #000)" d="M45.145 25.911v-4.819h-4.676l-0.070 1.858c-0.061 1.663-0.261 2.936-1.052 2.961h-0.243l-0.009 2.35h1.304v-1.23h4.294v1.23h1.304v-2.35h-0.852zM41.642 23.077l0.026-0.865h2.086v3.699h-2.721c0.417-0.484 0.556-1.57 0.608-2.834z"></path>
</symbol>
<symbol id="icon-logo1-2" viewBox="0 0 106 32">
<path fill="#333" style="fill: var(--color3, #333)" d="M42.962 16.421h2.356l-2.857-8.331h-2.645l-2.851 8.331h2.144l0.548-1.83h2.774l0.53 1.83zM41.001 9.967h0.112l0.913 3.1h-1.956l0.931-3.1z"></path>
<path fill="#333" style="fill: var(--color3, #333)" d="M46.619 16.421h2.079v-8.833h-2.079v8.833z"></path>
<path fill="#333" style="fill: var(--color3, #333)" d="M50.908 8.524v1.559h-1.007v1.518h1.007v3.060c0 1.259 0.678 1.772 2.403 1.772 0.395 0 0.778-0.035 0.995-0.081v-1.455c-0.153 0.017-0.283 0.029-0.524 0.029-0.542 0-0.795-0.237-0.795-0.722v-2.604h1.319v-1.518h-1.319v-1.559h-2.080z"></path>
<path fill="#333" style="fill: var(--color3, #333)" d="M58.607 11.295c0.695 0 1.131 0.445 1.166 1.195h-2.38c0.053-0.727 0.53-1.195 1.214-1.195zM59.849 14.528c-0.141 0.375-0.559 0.595-1.166 0.595-0.795 0-1.284-0.52-1.302-1.357v-0.104h4.412v-0.566c0-2.049-1.178-3.25-3.199-3.25-2.032 0-3.263 1.287-3.263 3.406 0 2.107 1.201 3.32 3.293 3.32 1.697 0 2.898-0.791 3.128-2.044h-1.903z"></path>
<path fill="#333" style="fill: var(--color3, #333)" d="M63.089 16.421h2.079v-3.4c0-0.895 0.613-1.403 1.532-1.403 0.319 0 0.736 0.052 0.895 0.116v-1.738c-0.153-0.063-0.477-0.098-0.754-0.098-0.818 0-1.455 0.508-1.614 1.155h-0.112v-1.056h-2.026v6.425z"></path>
<path fill="#333" style="fill: var(--color3, #333)" d="M68.719 16.421h2.079v-3.672c0-0.739 0.406-1.235 1.084-1.235 0.707 0 1.031 0.433 1.031 1.212v3.695h2.085v-4.151c0-1.541-0.759-2.425-2.221-2.425-0.948 0-1.632 0.468-1.92 1.195h-0.112v-1.045h-2.026v6.425z"></path>
<path fill="#333" style="fill: var(--color3, #333)" d="M79.111 15.093c-0.524 0-0.872-0.254-0.872-0.664 0-0.387 0.324-0.623 0.943-0.67l1.101-0.069v0.421c0 0.554-0.513 0.981-1.172 0.981zM78.351 16.519c0.831 0 1.549-0.346 1.843-0.895h0.112v0.797h2.026v-4.382c0-1.386-1.031-2.194-2.839-2.194-1.773 0-2.933 0.774-3.028 2.021h1.873c0.135-0.341 0.489-0.52 1.036-0.52 0.577 0 0.907 0.26 0.907 0.693v0.502l-1.431 0.081c-1.691 0.098-2.621 0.779-2.621 1.951 0 1.178 0.86 1.946 2.121 1.946z"></path>
<path fill="#333" style="fill: var(--color3, #333)" d="M84.435 8.524v1.559h-1.007v1.518h1.007v3.060c0 1.259 0.677 1.772 2.403 1.772 0.395 0 0.777-0.035 0.995-0.081v-1.455c-0.153 0.017-0.283 0.029-0.524 0.029-0.542 0-0.795-0.237-0.795-0.722v-2.604h1.319v-1.518h-1.319v-1.559h-2.079z"></path>
<path fill="#333" style="fill: var(--color3, #333)" d="M89.207 16.421h2.085v-6.425h-2.085v6.425zM90.249 9.136c0.607 0 1.107-0.468 1.107-1.062s-0.501-1.068-1.107-1.068-1.107 0.473-1.107 1.068c0 0.595 0.501 1.062 1.107 1.062z"></path>
<path fill="#333" style="fill: var(--color3, #333)" d="M99.161 9.996h-2.191l-1.113 4.595h-0.112l-1.136-4.595h-2.244l2.209 6.425h2.403l2.185-6.425z"></path>
<path fill="#333" style="fill: var(--color3, #333)" d="M102.891 11.295c0.695 0 1.131 0.445 1.166 1.195h-2.379c0.053-0.727 0.53-1.195 1.214-1.195zM104.133 14.528c-0.142 0.375-0.559 0.595-1.166 0.595-0.795 0-1.284-0.52-1.302-1.357v-0.104h4.412v-0.566c0-2.049-1.178-3.25-3.199-3.25-2.032 0-3.263 1.287-3.263 3.406 0 2.107 1.201 3.32 3.293 3.32 1.697 0 2.898-0.791 3.128-2.044h-1.903z"></path>
<path fill="#333" style="fill: var(--color3, #333)" d="M63.618 24.404c0.948 0 1.647-0.548 1.764-1.371h-0.657c-0.118 0.471-0.544 0.768-1.107 0.768-0.766 0-1.243-0.609-1.243-1.579 0-0.973 0.477-1.582 1.24-1.582 0.56 0 0.987 0.329 1.11 0.84h0.657c-0.106-0.849-0.831-1.443-1.767-1.443-1.181 0-1.914 0.834-1.914 2.185 0 1.348 0.736 2.182 1.917 2.182z"></path>
<path fill="#333" style="fill: var(--color3, #333)" d="M69.449 20.037c-1.219 0-1.985 0.837-1.985 2.182 0 1.342 0.748 2.185 1.985 2.185 1.228 0 1.982-0.846 1.982-2.185 0-1.342-0.76-2.182-1.982-2.182zM69.449 20.64c0.804 0 1.308 0.612 1.308 1.579 0 0.961-0.501 1.582-1.308 1.582-0.819 0-1.311-0.621-1.311-1.582 0-0.967 0.507-1.579 1.311-1.579z"></path>
<path fill="#333" style="fill: var(--color3, #333)" d="M78.014 24.303v-4.165h-0.771l-1.355 3.187h-0.050l-1.352-3.187h-0.772v4.165h0.613v-3.008h0.041l1.246 2.91h0.501l1.246-2.91h0.041v3.008h0.613z"></path>
<path fill="#333" style="fill: var(--color3, #333)" d="M84.768 24.303v-4.165h-0.772l-1.355 3.187h-0.050l-1.352-3.187h-0.771v4.165h0.613v-3.008h0.041l1.246 2.91h0.501l1.246-2.91h0.041v3.008h0.613z"></path>
<path fill="#333" style="fill: var(--color3, #333)" d="M89.919 23.715h-2.038v-1.25h1.929v-0.56h-1.929v-1.178h2.038v-0.589h-2.698v4.165h2.698v-0.589z"></path>
<path fill="#333" style="fill: var(--color3, #333)" d="M92.92 20.707h0.931c0.51 0 0.822 0.274 0.822 0.727 0 0.465-0.295 0.73-0.804 0.73h-0.948v-1.458zM92.92 22.716h0.931l0.866 1.588h0.763l-0.954-1.694c0.518-0.173 0.825-0.629 0.825-1.189 0-0.782-0.551-1.282-1.408-1.282h-1.681v4.165h0.659v-1.588z"></path>
<path fill="#333" style="fill: var(--color3, #333)" d="M99.42 24.404c0.948 0 1.647-0.548 1.764-1.371h-0.656c-0.118 0.471-0.545 0.768-1.107 0.768-0.766 0-1.243-0.609-1.243-1.579 0-0.973 0.478-1.582 1.24-1.582 0.559 0 0.987 0.329 1.11 0.84h0.656c-0.106-0.849-0.831-1.443-1.767-1.443-1.181 0-1.914 0.834-1.914 2.185 0 1.348 0.736 2.182 1.917 2.182z"></path>
<path fill="#333" style="fill: var(--color3, #333)" d="M106.138 23.715h-2.038v-1.25h1.929v-0.56h-1.929v-1.178h2.038v-0.589h-2.698v4.165h2.698v-0.589z"></path>
<path fill="#333" style="fill: var(--color3, #333)" d="M8.591 14.044l-8.591 7.642 3.483 1.109 5.108-8.751z"></path>
<path fill="#333" style="fill: var(--color3, #333)" d="M20.080 28.080l10.004 3.186-0.678-3.186h-9.327z"></path>
<path fill="#333" style="fill: var(--color3, #333)" d="M25.914 11.666l-2.331-10.959-2.676 2.381 5.007 8.578z"></path>
<path fill="#019ad2" style="fill: var(--color5, #019ad2)" d="M17.947 0l15.816 27.095h-31.632l15.816-27.095zM17.947 9.921l-7.149 12.248h14.299l-7.149-12.248z"></path>
</symbol>
<symbol id="icon-Group-83" viewBox="0 0 194 32">
<path fill="#333" style="fill: var(--color3, #333)" d="M13.73 16.688v14.552h-3.465v-5.966h-6.801v5.966h-3.465v-14.552h3.465v5.738h6.801v-5.738h3.465z"></path>
<path fill="#333" style="fill: var(--color3, #333)" d="M29.933 28.537v2.703h-11.592v-14.552h11.314v2.703h-7.87v3.16h6.951v2.619h-6.951v3.368h8.148z"></path>
<path fill="#333" style="fill: var(--color3, #333)" d="M33.76 16.688h3.465v11.808h7.507v2.744h-10.971v-14.552z"></path>
<path fill="#333" style="fill: var(--color3, #333)" d="M54.216 16.688c1.326 0 2.474 0.215 3.443 0.645 0.984 0.43 1.739 1.039 2.267 1.829s0.791 1.725 0.791 2.806c0 1.067-0.264 2.003-0.791 2.806-0.528 0.79-1.283 1.4-2.267 1.829-0.97 0.416-2.117 0.624-3.443 0.624h-3.016v4.012h-3.465v-14.552h6.48zM54.024 24.483c1.041 0 1.832-0.215 2.374-0.644 0.542-0.443 0.813-1.067 0.813-1.871 0-0.818-0.271-1.441-0.813-1.871-0.542-0.443-1.333-0.665-2.374-0.665h-2.823v5.052h2.823z"></path>
<path fill="#333" style="fill: var(--color3, #333)" d="M64.261 16.688h6.801c1.625 0 3.058 0.305 4.299 0.915 1.255 0.596 2.224 1.441 2.909 2.536 0.699 1.095 1.048 2.37 1.048 3.825s-0.349 2.73-1.048 3.825c-0.684 1.095-1.654 1.947-2.909 2.557-1.24 0.596-2.673 0.894-4.299 0.894h-6.801v-14.552zM70.891 28.475c1.497 0 2.688-0.402 3.572-1.206 0.898-0.818 1.347-1.919 1.347-3.305s-0.449-2.481-1.347-3.285c-0.884-0.818-2.075-1.227-3.572-1.227h-3.165v9.022h3.165z"></path>
<path fill="#333" style="fill: var(--color3, #333)" d="M94.591 28.537v2.703h-11.592v-14.552h11.314v2.703h-7.871v3.16h6.951v2.619h-6.951v3.368h8.148z"></path>
<path fill="#333" style="fill: var(--color3, #333)" d="M103.336 31.489c-1.184 0-2.331-0.152-3.444-0.457-1.097-0.319-1.981-0.728-2.651-1.226l1.176-2.536c0.642 0.457 1.405 0.825 2.289 1.102s1.768 0.416 2.652 0.416c0.984 0 1.71-0.139 2.181-0.416 0.471-0.291 0.706-0.672 0.706-1.143 0-0.346-0.142-0.631-0.427-0.852-0.271-0.236-0.628-0.423-1.069-0.561-0.428-0.139-1.013-0.291-1.754-0.457-1.141-0.263-2.074-0.527-2.802-0.79s-1.354-0.686-1.881-1.268c-0.514-0.582-0.77-1.358-0.77-2.328 0-0.845 0.235-1.608 0.706-2.287 0.471-0.693 1.176-1.24 2.117-1.642 0.955-0.402 2.118-0.603 3.486-0.603 0.955 0 1.889 0.111 2.802 0.333s1.711 0.541 2.395 0.956l-1.069 2.557c-1.384-0.762-2.766-1.143-4.15-1.143-0.969 0-1.689 0.152-2.16 0.457-0.456 0.305-0.684 0.707-0.684 1.206s0.264 0.873 0.792 1.123c0.542 0.236 1.362 0.471 2.459 0.707 1.141 0.263 2.074 0.527 2.802 0.79s1.348 0.679 1.861 1.247c0.527 0.568 0.792 1.337 0.792 2.307 0 0.832-0.243 1.594-0.728 2.287-0.471 0.679-1.183 1.22-2.138 1.621s-2.118 0.603-3.486 0.603z"></path>
<path fill="#333" style="fill: var(--color3, #333)" d="M118.579 25.523l-2.010 2.037v3.68h-3.444v-14.552h3.444v6.798l6.63-6.798h3.849l-6.201 6.486 6.566 8.066h-4.042l-4.791-5.717z"></path>
<path fill="#0085ff" style="fill: var(--color4, #0085ff)" d="M138.866 31.529c-1.212 0-2.388-0.145-3.528-0.437s-2.068-0.679-2.78-1.164l1.39-3.035c0.67 0.43 1.447 0.776 2.33 1.039s1.754 0.395 2.61 0.395c1.625 0 2.438-0.395 2.438-1.185 0-0.416-0.235-0.721-0.706-0.915-0.456-0.208-1.197-0.423-2.224-0.644-1.127-0.236-2.068-0.485-2.823-0.748-0.756-0.277-1.405-0.714-1.946-1.31s-0.813-1.4-0.813-2.411c0-0.887 0.249-1.684 0.749-2.391 0.499-0.721 1.24-1.289 2.224-1.705 0.998-0.416 2.216-0.624 3.657-0.624 0.984 0 1.953 0.111 2.908 0.333 0.955 0.208 1.797 0.52 2.523 0.935l-1.304 3.056c-1.426-0.748-2.808-1.123-4.149-1.123-0.841 0-1.454 0.125-1.839 0.374-0.385 0.236-0.578 0.547-0.578 0.936s0.228 0.679 0.684 0.873c0.456 0.194 1.191 0.395 2.203 0.603 1.141 0.236 2.082 0.492 2.823 0.769 0.756 0.263 1.404 0.693 1.946 1.289 0.556 0.582 0.834 1.379 0.834 2.391 0 0.873-0.249 1.663-0.748 2.37s-1.248 1.275-2.246 1.705c-0.998 0.416-2.21 0.624-3.636 0.624z"></path>
<path fill="#0085ff" style="fill: var(--color4, #0085ff)" d="M151.499 19.95h-4.599v-3.264h13.41v3.264h-4.577v11.288h-4.234v-11.288z"></path>
<path fill="#0085ff" style="fill: var(--color4, #0085ff)" d="M172.236 28.411h-6.33l-1.176 2.827h-4.32l6.608-14.552h4.17l6.631 14.552h-4.406l-1.176-2.827zM170.996 25.376l-1.925-4.657-1.925 4.657h3.849z"></path>
<path fill="#0085ff" style="fill: var(--color4, #0085ff)" d="M186.632 27.372h-2.31v3.867h-4.235v-14.552h6.844c1.354 0 2.531 0.222 3.528 0.665 0.999 0.43 1.768 1.053 2.31 1.871 0.542 0.804 0.813 1.753 0.813 2.848 0 1.053-0.257 1.975-0.77 2.765-0.499 0.776-1.219 1.386-2.16 1.829l3.229 4.573h-4.534l-2.716-3.867zM189.305 22.071c0-0.679-0.221-1.206-0.663-1.58s-1.098-0.561-1.968-0.561h-2.352v4.262h2.352c0.87 0 1.526-0.18 1.968-0.541 0.441-0.374 0.663-0.901 0.663-1.58z"></path>
<path fill="#0085ff" style="fill: var(--color4, #0085ff)" d="M100.021 8.838c0 1.318-1.086 2.39-2.421 2.39 1.335 0 2.421 1.072 2.421 2.39 0-1.318 1.086-2.39 2.421-2.39-1.335 0.007-2.421-1.066-2.421-2.39z"></path>
<path fill="#0085ff" style="fill: var(--color4, #0085ff)" d="M112.931 10.032c-2.004 0-3.631-1.602-3.631-3.586 0 1.978-1.623 3.586-3.631 3.586 2.003 0 3.631 1.602 3.631 3.586 0.005-1.983 1.627-3.586 3.631-3.586z"></path>
<path fill="#0085ff" style="fill: var(--color4, #0085ff)" d="M121.608 0.471c0 3.301-2.621 5.973-5.852 5.973 3.231 0 5.852 2.677 5.852 5.979 0-3.302 2.621-5.979 5.847-5.979-3.225 0-5.847-2.672-5.847-5.973z"></path>
</symbol>
<symbol id="icon-vector43211" viewBox="0 0 47 32">
<path  stroke-linejoin="bevel" stroke-linecap="square" stroke-miterlimit="4" stroke-width="1.3913" d="M45.913 16h-44.522M1.391 16l14.311 14.609M1.391 16l14.311-14.609"></path>
</symbol>
<symbol id="icon-vector1234" viewBox="0 0 47 32">
<path stroke-linejoin="bevel" stroke-linecap="square" stroke-miterlimit="4" stroke-width="1.3913" d="M1.391 16h44.522M45.913 16l-14.311 14.609M45.913 16l-14.311-14.609"></path>
</symbol>
<symbol id="icon-lo" viewBox="0 0 106 32">
<path fill="#333" style="fill: var(--color1, #333)" d="M42.783 16.421h2.346l-2.845-8.331h-2.634l-2.839 8.331h2.135l0.546-1.83h2.763l0.528 1.83zM40.83 9.967h0.112l0.909 3.1h-1.948l0.927-3.1z"></path>
<path fill="#333" style="fill: var(--color1, #333)" d="M46.425 16.421h2.071v-8.833h-2.071v8.833z"></path>
<path fill="#333" style="fill: var(--color1, #333)" d="M50.696 8.524v1.559h-1.003v1.518h1.003v3.060c0 1.258 0.675 1.772 2.393 1.772 0.393 0 0.774-0.035 0.991-0.081v-1.455c-0.153 0.017-0.282 0.029-0.522 0.029-0.54 0-0.792-0.237-0.792-0.722v-2.604h1.314v-1.518h-1.314v-1.559h-2.071z"></path>
<path fill="#333" style="fill: var(--color1, #333)" d="M58.362 11.295c0.692 0 1.126 0.445 1.161 1.195h-2.369c0.053-0.727 0.528-1.195 1.208-1.195zM59.599 14.528c-0.141 0.375-0.557 0.595-1.161 0.595-0.792 0-1.279-0.52-1.297-1.357v-0.104h4.393v-0.566c0-2.049-1.173-3.25-3.185-3.25-2.024 0-3.249 1.287-3.249 3.406 0 2.107 1.196 3.32 3.279 3.32 1.689 0 2.886-0.791 3.115-2.044h-1.895z"></path>
<path fill="#333" style="fill: var(--color1, #333)" d="M62.826 16.421h2.070v-3.4c0-0.895 0.61-1.403 1.525-1.403 0.317 0 0.733 0.052 0.891 0.115v-1.738c-0.153-0.063-0.475-0.098-0.751-0.098-0.815 0-1.449 0.508-1.607 1.155h-0.112v-1.056h-2.018v6.425z"></path>
<path fill="#333" style="fill: var(--color1, #333)" d="M68.433 16.421h2.070v-3.672c0-0.739 0.405-1.235 1.079-1.235 0.705 0 1.027 0.433 1.027 1.212v3.695h2.077v-4.151c0-1.541-0.757-2.425-2.211-2.425-0.944 0-1.625 0.468-1.912 1.195h-0.111v-1.045h-2.018v6.425z"></path>
<path fill="#333" style="fill: var(--color1, #333)" d="M78.781 15.093c-0.522 0-0.869-0.254-0.869-0.664 0-0.387 0.323-0.623 0.939-0.67l1.096-0.069v0.421c0 0.554-0.51 0.981-1.167 0.981zM78.024 16.519c0.827 0 1.542-0.346 1.836-0.895h0.111v0.797h2.018v-4.382c0-1.386-1.027-2.194-2.827-2.194-1.766 0-2.921 0.774-3.016 2.021h1.866c0.135-0.341 0.487-0.52 1.032-0.52 0.575 0 0.903 0.26 0.903 0.693v0.502l-1.425 0.081c-1.684 0.098-2.611 0.779-2.611 1.951 0 1.178 0.856 1.946 2.112 1.946z"></path>
<path fill="#333" style="fill: var(--color1, #333)" d="M84.083 8.524v1.559h-1.003v1.518h1.003v3.060c0 1.258 0.675 1.772 2.393 1.772 0.393 0 0.774-0.035 0.991-0.081v-1.455c-0.152 0.017-0.282 0.029-0.522 0.029-0.54 0-0.792-0.237-0.792-0.722v-2.604h1.313v-1.518h-1.313v-1.559h-2.071z"></path>
<path fill="#333" style="fill: var(--color1, #333)" d="M88.835 16.421h2.077v-6.425h-2.077v6.425zM89.873 9.136c0.604 0 1.103-0.468 1.103-1.062s-0.499-1.068-1.103-1.068c-0.605 0-1.103 0.473-1.103 1.068s0.499 1.062 1.103 1.062z"></path>
<path fill="#333" style="fill: var(--color1, #333)" d="M98.747 9.996h-2.182l-1.109 4.595h-0.111l-1.132-4.595h-2.235l2.2 6.425h2.393l2.176-6.425z"></path>
<path fill="#333" style="fill: var(--color1, #333)" d="M102.461 11.295c0.692 0 1.126 0.445 1.162 1.195h-2.37c0.053-0.727 0.528-1.195 1.208-1.195zM103.699 14.528c-0.141 0.375-0.558 0.595-1.162 0.595-0.792 0-1.279-0.52-1.297-1.357v-0.104h4.394v-0.566c0-2.049-1.173-3.25-3.185-3.25-2.024 0-3.249 1.287-3.249 3.406 0 2.107 1.197 3.32 3.279 3.32 1.689 0 2.886-0.791 3.114-2.044h-1.894z"></path>
<path fill="#333" style="fill: var(--color1, #333)" d="M63.353 24.404c0.944 0 1.64-0.548 1.757-1.371h-0.654c-0.117 0.471-0.542 0.768-1.103 0.768-0.762 0-1.238-0.609-1.238-1.579 0-0.973 0.475-1.582 1.235-1.582 0.557 0 0.982 0.329 1.106 0.84h0.654c-0.106-0.849-0.827-1.443-1.76-1.443-1.176 0-1.906 0.834-1.906 2.185 0 1.348 0.733 2.182 1.909 2.182z"></path>
<path fill="#333" style="fill: var(--color1, #333)" d="M69.159 20.037c-1.214 0-1.977 0.837-1.977 2.182 0 1.342 0.745 2.185 1.977 2.185 1.223 0 1.974-0.846 1.974-2.185 0-1.342-0.756-2.182-1.974-2.182zM69.159 20.64c0.801 0 1.302 0.612 1.302 1.579 0 0.961-0.499 1.582-1.302 1.582-0.815 0-1.305-0.621-1.305-1.582 0-0.967 0.504-1.579 1.305-1.579z"></path>
<path fill="#333" style="fill: var(--color1, #333)" d="M77.689 24.303v-4.165h-0.769l-1.349 3.187h-0.050l-1.346-3.187h-0.769v4.165h0.61v-3.008h0.041l1.241 2.91h0.498l1.241-2.91h0.041v3.008h0.61z"></path>
<path fill="#333" style="fill: var(--color1, #333)" d="M84.415 24.303v-4.165h-0.769l-1.349 3.187h-0.050l-1.346-3.187h-0.769v4.165h0.61v-3.008h0.041l1.241 2.91h0.498l1.241-2.91h0.041v3.008h0.61z"></path>
<path fill="#333" style="fill: var(--color1, #333)" d="M89.545 23.715h-2.030v-1.25h1.921v-0.56h-1.921v-1.178h2.030v-0.589h-2.687v4.165h2.687v-0.589z"></path>
<path fill="#333" style="fill: var(--color1, #333)" d="M92.533 20.707h0.927c0.507 0 0.818 0.274 0.818 0.727 0 0.465-0.293 0.73-0.801 0.73h-0.944v-1.458zM92.533 22.716h0.927l0.862 1.588h0.76l-0.95-1.694c0.516-0.173 0.822-0.629 0.822-1.189 0-0.782-0.549-1.282-1.402-1.282h-1.675v4.165h0.657v-1.588z"></path>
<path fill="#333" style="fill: var(--color1, #333)" d="M99.006 24.404c0.944 0 1.639-0.548 1.757-1.371h-0.654c-0.118 0.471-0.543 0.768-1.103 0.768-0.762 0-1.238-0.609-1.238-1.579 0-0.973 0.476-1.582 1.235-1.582 0.557 0 0.982 0.329 1.105 0.84h0.654c-0.106-0.849-0.827-1.443-1.759-1.443-1.176 0-1.907 0.834-1.907 2.185 0 1.348 0.733 2.182 1.91 2.182z"></path>
<path fill="#333" style="fill: var(--color1, #333)" d="M105.695 23.715h-2.029v-1.25h1.921v-0.56h-1.921v-1.178h2.029v-0.589h-2.686v4.165h2.686v-0.589z"></path>
<path fill="#333" style="fill: var(--color1, #333)" d="M8.555 14.044l-8.555 7.642 3.468 1.109 5.087-8.751z"></path>
<path fill="#333" style="fill: var(--color1, #333)" d="M19.996 28.080l9.963 3.186-0.675-3.186h-9.288z"></path>
<path fill="#333" style="fill: var(--color1, #333)" d="M25.806 11.666l-2.321-10.959-2.665 2.381 4.986 8.578z"></path>
<path fill="#019ad2" style="fill: var(--color2, #019ad2)" d="M17.872 0l15.75 27.095h-31.5l15.75-27.095zM17.872 9.921l-7.12 12.248h14.239l-7.12-12.248z"></path>
</symbol>
<symbol id="icon-ope" viewBox="0 0 64 32">
<path fill="#40aa54" style="fill: var(--color3, #40aa54); stroke: var(--color4, #20552a)" stroke="#20552a" stroke-linejoin="round" stroke-linecap="butt" stroke-miterlimit="4" stroke-width="0.7179" d="M32.001 1.661c-4.917 0-8.901 3.986-8.901 8.902 0 3.816 2.402 7.070 5.776 8.336l2.050-5.47c-0.67-0.253-1.23-0.733-1.583-1.356s-0.476-1.35-0.348-2.055c0.128-0.705 0.499-1.342 1.048-1.801s1.242-0.712 1.958-0.713c0.716 0.001 1.409 0.254 1.959 0.713s0.92 1.097 1.048 1.802c0.128 0.705 0.004 1.432-0.349 2.055s-0.913 1.103-1.584 1.356l2.052 5.47c3.374-1.266 5.776-4.52 5.776-8.336 0-4.916-3.986-8.901-8.902-8.901l0.001-0.002z"></path>
<path fill="#000" style="fill: var(--color5, #000)" d="M8.449 25.236c0 0.685-0.559 1.257-1.258 1.257-0.713 0-1.258-0.573-1.258-1.257v-1.817c0-0.684 0.559-1.258 1.258-1.258s1.258 0.574 1.258 1.258v1.817zM9.706 25.236v-1.817c0-1.411-0.992-2.375-2.515-2.375s-2.515 0.949-2.515 2.373v1.816c0 1.425 0.992 2.375 2.515 2.375s2.515-0.949 2.515-2.373zM14.177 25.095c0 0.685-0.544 1.258-1.257 1.258-0.693 0-1.258-0.573-1.258-1.258v-1.536c0-0.685 0.559-1.259 1.258-1.259 0.713 0 1.258 0.573 1.258 1.259l-0.001 1.536zM15.435 25.095v-1.536c0-1.411-1.006-2.375-2.418-2.375-0.825 0-1.216 0.461-1.397 0.461-0.056 0-0.098-0.056-0.098-0.155v-0.168c0-0.098-0.043-0.14-0.14-0.14h-0.833c-0.098 0-0.14 0.043-0.14 0.14v9.152c0 0.098 0.043 0.14 0.14 0.14h0.978c0.098 0 0.14-0.043 0.14-0.14v-3.312c0-0.098 0.043-0.154 0.107-0.154 0.125 0 0.544 0.461 1.355 0.461 1.3 0 2.306-1.005 2.306-2.375l0.001 0.001zM19.571 23.559h-2.235c-0.126 0-0.14-0.056-0.14-0.21 0-0.614 0.587-1.188 1.259-1.188 0.656 0 1.257 0.559 1.257 1.16-0.001 0.168-0.014 0.238-0.14 0.238h-0.001zM20.968 24.396v-0.978c0-1.271-1.117-2.375-2.515-2.375s-2.515 1.104-2.515 2.375v1.817c0 1.425 0.992 2.375 2.515 2.375 0.741 0 1.328-0.196 1.747-0.587s0.587-0.755 0.587-0.853c0-0.042-0.028-0.069-0.084-0.098l-0.88-0.448c-0.028-0.014-0.056-0.028-0.084-0.028-0.084 0-0.21 0.224-0.517 0.587-0.154 0.181-0.433 0.307-0.768 0.307-0.712 0-1.258-0.573-1.258-1.257v-0.557c0-0.098 0.042-0.14 0.14-0.14h3.493c0.019 0.004 0.039 0.003 0.058-0.002s0.036-0.016 0.050-0.029c0.014-0.014 0.024-0.031 0.030-0.050s0.006-0.039 0.002-0.058l-0.001-0.002zM26.46 27.47h-0.978c-0.019 0.004-0.039 0.004-0.058-0.002s-0.036-0.016-0.050-0.030c-0.014-0.014-0.024-0.031-0.030-0.050s-0.006-0.039-0.002-0.058v-3.772c0-0.685-0.545-1.259-1.258-1.259-0.693 0-1.258 0.573-1.258 1.259v3.772c0.004 0.019 0.004 0.039-0.002 0.058s-0.016 0.036-0.030 0.050c-0.014 0.014-0.031 0.024-0.050 0.030s-0.039 0.006-0.058 0.002h-0.978c-0.098 0-0.14-0.042-0.14-0.14v-6.008c0-0.098 0.043-0.14 0.14-0.14h0.838c0.098 0 0.14 0.043 0.14 0.14v0.167c0 0.098 0.042 0.154 0.098 0.154 0.181 0 0.573-0.461 1.397-0.461 1.411 0 2.417 0.965 2.417 2.375v3.772c0.004 0.019 0.004 0.039-0.002 0.058s-0.015 0.036-0.029 0.050c-0.014 0.014-0.031 0.024-0.050 0.030s-0.039 0.007-0.058 0.002l-0.001-0.001zM30.093 22.817c0 0.573 0.433 0.838 1.397 1.048 1.607 0.349 2.501 0.559 2.501 1.733 0 1.188-0.867 2.012-2.222 2.012h-0.433c-1.3 0-2.152-0.782-2.152-1.216 0-0.042 0.028-0.069 0.098-0.098l0.545-0.265c0.028-0.014 0.055-0.014 0.069-0.014 0.043 0 0.069 0.028 0.107 0.069 0.363 0.405 0.643 0.782 1.327 0.782h0.433c0.782 0 1.28-0.447 1.28-1.020 0-0.517-0.433-0.825-1.37-1.020-1.621-0.336-2.501-0.503-2.501-1.733 0-1.147 0.852-1.941 2.152-1.941h0.433c1.271 0 2.138 0.768 2.138 1.188 0 0.043-0.042 0.069-0.098 0.098l-0.531 0.265c-0.028 0.014-0.042 0.014-0.056 0.014-0.043 0-0.069-0.028-0.107-0.070-0.391-0.419-0.712-0.754-1.341-0.754h-0.433c-0.809-0.002-1.242 0.348-1.242 0.92l0.004 0.002zM38.503 25.318c0 0.811-0.657 1.495-1.495 1.495s-1.481-0.685-1.481-1.495v-1.886c0-0.825 0.629-1.481 1.481-1.481 0.837 0 1.495 0.685 1.495 1.481v1.886zM39.453 25.318v-1.886c0-1.356-0.964-2.277-2.445-2.277s-2.418 0.894-2.418 2.277v1.886c0 1.383 0.936 2.292 2.418 2.292s2.446-0.923 2.446-2.292l-0.001 0.001zM44.903 27.47h-0.517c-0.098 0-0.14-0.042-0.14-0.14v-0.6c0-0.098-0.055-0.154-0.112-0.154-0.125 0-0.265 0.224-0.517 0.475-0.28 0.265-0.693 0.419-1.16 0.419-1.271 0-2.277-0.936-2.277-2.292v-3.749c0-0.098 0.043-0.14 0.14-0.14h0.656c0.019-0.004 0.039-0.003 0.058 0.002s0.036 0.016 0.050 0.030 0.024 0.031 0.030 0.050c0.005 0.019 0.006 0.039 0.002 0.058v3.744c0 0.811 0.657 1.495 1.482 1.495 0.866 0 1.509-0.671 1.509-1.495v-3.744c-0.004-0.019-0.003-0.039 0.002-0.058s0.016-0.036 0.030-0.050 0.031-0.024 0.050-0.030c0.019-0.006 0.039-0.006 0.058-0.002h0.657c0.019-0.004 0.039-0.003 0.058 0.002s0.036 0.016 0.050 0.030 0.024 0.031 0.030 0.050c0.006 0.019 0.006 0.039 0.002 0.058v5.897c0.004 0.019 0.004 0.039-0.002 0.058s-0.015 0.036-0.029 0.050c-0.014 0.014-0.031 0.024-0.050 0.030s-0.039 0.006-0.058 0.002l-0.001 0.004zM49.277 22.286c-0.112 0-0.293-0.042-0.531-0.042-0.852 0-1.481 0.642-1.481 1.467v3.619c0.004 0.019 0.003 0.039-0.002 0.058s-0.016 0.036-0.030 0.050-0.031 0.024-0.050 0.030c-0.019 0.006-0.039 0.006-0.058 0.002h-0.671c-0.019 0.004-0.039 0.003-0.058-0.002s-0.036-0.016-0.050-0.030-0.024-0.031-0.030-0.050c-0.006-0.019-0.006-0.039-0.002-0.058v-5.901c-0.004-0.019-0.003-0.039 0.002-0.058s0.016-0.036 0.029-0.050 0.031-0.024 0.050-0.030c0.019-0.006 0.039-0.006 0.058-0.002h0.517c0.019-0.004 0.039-0.003 0.058 0.002s0.036 0.016 0.050 0.030 0.024 0.031 0.030 0.050c0.006 0.019 0.006 0.039 0.002 0.058v0.693c0 0.098 0.056 0.154 0.107 0.154 0.154 0 0.377-0.349 0.88-0.755 0.187-0.14 0.41-0.222 0.643-0.237h0.517c0.019-0.004 0.039-0.004 0.058 0.002s0.036 0.016 0.050 0.030 0.024 0.031 0.030 0.050c0.006 0.019 0.006 0.039 0.002 0.058v0.713c-0.002 0.114-0.029 0.141-0.126 0.141l0.006 0.009zM53.957 26.379c0 0.447-0.852 1.229-2.165 1.229-1.481 0-2.418-0.908-2.418-2.292v-1.886c0-1.384 0.937-2.277 2.418-2.277 1.3 0 2.18 0.741 2.18 1.202 0 0.042-0.043 0.084-0.098 0.107l-0.587 0.293c-0.028 0.014-0.043 0.014-0.056 0.014-0.042 0-0.069-0.014-0.112-0.055-0.419-0.392-0.693-0.769-1.328-0.769-0.852 0-1.481 0.657-1.481 1.481v1.886c0 0.811 0.643 1.495 1.481 1.495 0.336 0 0.671-0.14 0.923-0.378 0.293-0.279 0.419-0.48 0.502-0.48 0.014 0 0.043 0 0.069 0.014l0.587 0.293c0.066 0.029 0.081 0.056 0.081 0.107l0.004 0.015zM58.371 23.627c0.004 0.019 0.004 0.039-0.002 0.058s-0.016 0.036-0.030 0.050-0.031 0.024-0.050 0.030c-0.019 0.006-0.039 0.006-0.058 0.002h-2.697c-0.098 0-0.14-0.043-0.14-0.14v-0.195c0-0.825 0.629-1.481 1.481-1.481 0.838 0 1.495 0.685 1.495 1.481v0.195zM59.323 24.284v-0.852c0-1.202-1.090-2.277-2.445-2.277-0.713 0-1.3 0.252-1.76 0.741-0.419 0.447-0.656 1.020-0.656 1.537v1.886c0 1.383 0.936 2.292 2.417 2.292 1.314 0 2.165-0.782 2.165-1.229 0-0.056-0.014-0.084-0.084-0.107l-0.587-0.293c-0.028-0.014-0.056-0.014-0.069-0.014-0.084 0-0.21 0.196-0.503 0.48-0.251 0.238-0.587 0.378-0.923 0.378-0.838 0-1.481-0.685-1.481-1.495v-0.755c-0.004-0.019-0.004-0.039 0.002-0.058s0.016-0.036 0.030-0.050 0.031-0.024 0.050-0.030c0.019-0.006 0.039-0.006 0.058-0.002h3.647c0.1-0.004 0.141-0.045 0.141-0.143l-0.002-0.009z"></path>
</symbol>
<symbol id="icon-log" viewBox="0 0 157 32">
<path fill="#fff" style="fill: var(--color6, #fff)" d="M19.412 1.504l0.119-0.549 10.545 15.865-0.768 0.461-9.895-15.777z"></path>
<path fill="#ffc700" style="fill: var(--color7, #ffc700)" d="M14.148 15.086c7.116-1.75 9.322-5.203 9.637-6.818l4.868 7.286c-3.003 4.225-5.093 5.076-7.029 5.275-6.74 0.693-11.972 5.395-13.692 7.595l-3.607-6.751c0.315-1.468 2.706-4.837 9.823-6.587z"></path>
<path fill="#0678be" style="fill: var(--color8, #0678be)" d="M10.159 8.419c6.849-1.763 9.163-5.435 9.463-7.051l4.506 7.491c-2.884 4.23-4.989 4.682-6.759 5.288-6.407 2.193-9.538 2.43-13.014 7.576l-3.659-6.695c0.3-1.469 2.614-4.847 9.463-6.61z"></path>
<path fill="#0478be" style="fill: var(--color9, #0478be)" d="M57.86 11.492c0 0.453 0.092 0.875 0.277 1.267s0.434 0.734 0.748 1.028c0.314 0.288 0.677 0.517 1.090 0.688 0.413 0.165 0.844 0.248 1.293 0.248s0.871-0.083 1.266-0.248c0.394-0.171 0.736-0.401 1.025-0.688 0.289-0.294 0.517-0.636 0.684-1.028 0.172-0.392 0.259-0.814 0.259-1.267v-5.654c0-0.141 0.025-0.269 0.074-0.386 0.055-0.122 0.129-0.226 0.222-0.312 0.092-0.092 0.197-0.162 0.314-0.211 0.123-0.049 0.256-0.073 0.397-0.073 0.135 0 0.265 0.024 0.388 0.073s0.228 0.119 0.314 0.211c0.092 0.086 0.163 0.19 0.213 0.312 0.055 0.116 0.083 0.245 0.083 0.386v5.654c0 0.716-0.139 1.392-0.416 2.029-0.271 0.636-0.644 1.19-1.118 1.661s-1.032 0.844-1.672 1.12c-0.634 0.275-1.315 0.413-2.041 0.413s-1.416-0.138-2.069-0.413c-0.653-0.275-1.229-0.649-1.727-1.12-0.493-0.471-0.884-1.025-1.173-1.661s-0.434-1.313-0.434-2.029v-5.636c0-0.135 0.025-0.263 0.074-0.386 0.055-0.122 0.126-0.226 0.212-0.312 0.092-0.092 0.197-0.162 0.314-0.211 0.123-0.055 0.256-0.083 0.397-0.083 0.136 0 0.265 0.028 0.388 0.083 0.123 0.049 0.231 0.119 0.323 0.211 0.092 0.086 0.163 0.19 0.212 0.312 0.055 0.122 0.083 0.251 0.083 0.386v5.636z"></path>
<path fill="#0478be" style="fill: var(--color9, #0478be)" d="M70.495 10.656l5.847-5.526c0.105-0.098 0.218-0.168 0.342-0.211s0.246-0.061 0.37-0.055c0.129 0 0.255 0.028 0.378 0.083s0.234 0.132 0.333 0.229c0.093 0.098 0.16 0.208 0.203 0.33 0.043 0.116 0.058 0.239 0.047 0.367-0.006 0.128-0.038 0.254-0.093 0.376s-0.136 0.233-0.241 0.33l-4.212 3.956 4.305 4.36c0.099 0.104 0.173 0.22 0.222 0.349 0.049 0.122 0.074 0.248 0.074 0.376s-0.028 0.254-0.083 0.376c-0.049 0.116-0.123 0.223-0.222 0.321-0.197 0.196-0.425 0.291-0.684 0.285-0.253 0-0.477-0.101-0.674-0.303l-4.378-4.415-1.533 1.45v2.286c0 0.141-0.028 0.272-0.083 0.395-0.049 0.116-0.12 0.217-0.212 0.303s-0.2 0.156-0.323 0.211c-0.123 0.049-0.253 0.073-0.388 0.073-0.142 0-0.274-0.024-0.397-0.073-0.117-0.055-0.222-0.125-0.314-0.211-0.086-0.086-0.157-0.187-0.212-0.303-0.049-0.122-0.074-0.254-0.074-0.395v-9.785c0-0.135 0.025-0.263 0.074-0.386 0.055-0.122 0.126-0.226 0.212-0.312 0.092-0.086 0.197-0.153 0.314-0.202 0.123-0.055 0.256-0.083 0.397-0.083 0.135 0 0.265 0.028 0.388 0.083 0.123 0.049 0.231 0.116 0.323 0.202s0.163 0.19 0.212 0.312c0.056 0.122 0.083 0.251 0.083 0.386v4.819z"></path>
<path fill="#0478be" style="fill: var(--color9, #0478be)" d="M79.622 5.856c0-0.141 0.024-0.272 0.074-0.395 0.056-0.122 0.127-0.226 0.213-0.312 0.092-0.092 0.197-0.162 0.314-0.211 0.123-0.055 0.256-0.083 0.397-0.083h3.39c0.61 0 1.183 0.11 1.718 0.33 0.536 0.214 1.004 0.514 1.405 0.9 0.406 0.379 0.723 0.832 0.951 1.359 0.234 0.52 0.351 1.083 0.351 1.689 0 0.416-0.056 0.811-0.166 1.184s-0.268 0.719-0.471 1.037c-0.204 0.312-0.447 0.597-0.73 0.854s-0.595 0.471-0.934 0.643l1.709 2.047c0.104 0.104 0.182 0.217 0.231 0.34s0.071 0.248 0.065 0.376c0 0.129-0.025 0.254-0.074 0.376s-0.123 0.23-0.222 0.321c-0.099 0.098-0.207 0.171-0.323 0.22-0.111 0.049-0.225 0.073-0.342 0.073s-0.234-0.024-0.351-0.073c-0.111-0.049-0.215-0.122-0.314-0.22l-2.568-2.965h-2.319v2.276c0 0.141-0.027 0.272-0.083 0.395-0.049 0.116-0.12 0.217-0.212 0.303s-0.2 0.156-0.323 0.211c-0.123 0.049-0.253 0.073-0.388 0.073-0.141 0-0.274-0.024-0.397-0.073-0.117-0.055-0.222-0.125-0.314-0.211-0.086-0.086-0.157-0.187-0.213-0.303-0.049-0.122-0.074-0.254-0.074-0.395v-9.767zM81.626 6.847v4.498h2.402c0.333 0 0.643-0.058 0.933-0.174 0.296-0.116 0.551-0.272 0.767-0.468 0.216-0.202 0.385-0.438 0.509-0.707 0.129-0.269 0.193-0.557 0.193-0.863 0-0.312-0.065-0.606-0.193-0.881-0.124-0.281-0.296-0.526-0.518-0.734-0.216-0.208-0.468-0.37-0.758-0.486-0.289-0.122-0.598-0.184-0.924-0.184h-2.411z"></path>
<path fill="#0478be" style="fill: var(--color9, #0478be)" d="M96.968 14.355h-5.283l-0.693 1.652c-0.056 0.129-0.132 0.239-0.231 0.331s-0.209 0.159-0.333 0.202c-0.117 0.043-0.246 0.064-0.388 0.064-0.136-0.006-0.268-0.037-0.397-0.092-0.136-0.055-0.246-0.129-0.333-0.22-0.086-0.098-0.151-0.205-0.194-0.321-0.037-0.116-0.052-0.242-0.046-0.376 0.013-0.135 0.046-0.266 0.102-0.395l4.221-9.739c0.086-0.196 0.209-0.346 0.369-0.45s0.345-0.156 0.554-0.156c0.197 0 0.376 0.052 0.536 0.156s0.284 0.251 0.369 0.441l4.25 9.748c0.111 0.257 0.126 0.511 0.046 0.762-0.074 0.251-0.24 0.434-0.499 0.551-0.129 0.055-0.262 0.086-0.397 0.092-0.136 0-0.265-0.021-0.388-0.064-0.117-0.049-0.225-0.116-0.323-0.202-0.099-0.092-0.179-0.202-0.241-0.331l-0.702-1.652zM92.488 12.364h3.649l-1.811-4.323-1.838 4.323z"></path>
<path fill="#0478be" style="fill: var(--color9, #0478be)" d="M102.771 15.622c0 0.141-0.028 0.272-0.083 0.395-0.049 0.116-0.12 0.217-0.213 0.303s-0.2 0.156-0.323 0.211c-0.123 0.049-0.253 0.073-0.387 0.073-0.142 0-0.274-0.024-0.397-0.073-0.118-0.055-0.222-0.125-0.314-0.211-0.086-0.086-0.157-0.187-0.212-0.303-0.049-0.122-0.074-0.254-0.074-0.395v-9.785c0-0.141 0.024-0.269 0.074-0.386 0.055-0.122 0.126-0.226 0.212-0.312 0.093-0.092 0.197-0.162 0.314-0.211 0.123-0.049 0.255-0.073 0.397-0.073 0.135 0 0.264 0.024 0.387 0.073s0.231 0.119 0.323 0.211c0.093 0.086 0.163 0.19 0.213 0.312 0.055 0.116 0.083 0.245 0.083 0.386v9.785z"></path>
<path fill="#0478be" style="fill: var(--color9, #0478be)" d="M106.993 8.518v7.105c0 0.141-0.028 0.272-0.083 0.395-0.049 0.116-0.12 0.217-0.212 0.303s-0.2 0.156-0.323 0.211c-0.123 0.049-0.253 0.073-0.388 0.073-0.141 0-0.274-0.024-0.397-0.073-0.117-0.055-0.221-0.125-0.314-0.211-0.086-0.086-0.157-0.187-0.212-0.303-0.049-0.122-0.074-0.254-0.074-0.395v-9.757c0-0.263 0.086-0.487 0.259-0.67 0.080-0.104 0.182-0.187 0.305-0.248s0.268-0.092 0.434-0.092c0.148 0 0.289 0.034 0.425 0.101 0.142 0.061 0.265 0.153 0.369 0.275l6.392 7.628v-7.022c0-0.135 0.028-0.263 0.083-0.386s0.129-0.226 0.221-0.312c0.093-0.086 0.2-0.153 0.323-0.202 0.123-0.055 0.255-0.083 0.397-0.083 0.136 0 0.262 0.028 0.378 0.083 0.124 0.049 0.228 0.116 0.314 0.202 0.093 0.086 0.163 0.19 0.212 0.312s0.074 0.251 0.074 0.386v9.785c0 0.159-0.034 0.306-0.102 0.441s-0.161 0.245-0.278 0.33c-0.074 0.067-0.16 0.119-0.259 0.156-0.092 0.037-0.2 0.055-0.323 0.055h-0.056c-0.147-0.006-0.277-0.040-0.388-0.101-0.111-0.067-0.216-0.162-0.314-0.285l-6.466-7.701z"></path>
<path fill="#0478be" style="fill: var(--color9, #0478be)" d="M118.379 16.604c-0.265-0.024-0.486-0.125-0.665-0.303-0.173-0.184-0.259-0.413-0.259-0.688v-9.757c0-0.141 0.025-0.272 0.074-0.395 0.056-0.122 0.127-0.226 0.213-0.312 0.093-0.092 0.2-0.162 0.323-0.211 0.123-0.055 0.255-0.083 0.397-0.083h6.466c0.135 0 0.264 0.028 0.387 0.083 0.123 0.049 0.228 0.119 0.314 0.211 0.086 0.086 0.154 0.19 0.203 0.312 0.056 0.122 0.083 0.254 0.083 0.395s-0.027 0.272-0.083 0.395c-0.049 0.116-0.117 0.22-0.203 0.312-0.086 0.086-0.191 0.156-0.314 0.211-0.123 0.049-0.253 0.073-0.387 0.073h-5.469v2.735h4.277c0.135-0.006 0.264 0.018 0.387 0.073s0.228 0.129 0.314 0.22c0.093 0.092 0.163 0.202 0.212 0.33 0.056 0.122 0.083 0.251 0.083 0.386 0 0.141-0.028 0.269-0.083 0.386-0.049 0.116-0.12 0.22-0.212 0.312-0.086 0.086-0.191 0.153-0.314 0.202s-0.253 0.073-0.387 0.073h-4.277v3.047h5.469c0.135 0 0.264 0.028 0.387 0.083s0.228 0.129 0.314 0.22c0.086 0.092 0.154 0.199 0.203 0.321 0.056 0.122 0.083 0.251 0.083 0.385 0 0.141-0.027 0.272-0.083 0.395-0.049 0.116-0.117 0.22-0.203 0.312-0.086 0.086-0.191 0.156-0.314 0.211-0.123 0.049-0.253 0.070-0.387 0.064h-6.55z"></path>
<path fill="#0478be" style="fill: var(--color9, #0478be)" d="M66.109 21.537c0.197 0.196 0.296 0.428 0.296 0.698 0 0.263-0.099 0.493-0.296 0.688-0.092 0.098-0.203 0.171-0.333 0.22-0.123 0.049-0.249 0.073-0.379 0.073s-0.255-0.021-0.379-0.064c-0.123-0.049-0.231-0.119-0.323-0.211-0.4-0.398-0.847-0.691-1.339-0.881-0.487-0.196-0.992-0.294-1.515-0.294-0.542 0-1.056 0.104-1.543 0.312-0.48 0.202-0.902 0.483-1.266 0.844-0.357 0.355-0.644 0.774-0.859 1.258-0.209 0.483-0.314 1.004-0.314 1.561 0 0.532 0.099 1.040 0.296 1.524 0.203 0.477 0.48 0.9 0.831 1.267 0.357 0.361 0.776 0.652 1.256 0.872 0.48 0.214 1.004 0.324 1.57 0.331 0.53 0.006 1.032-0.083 1.506-0.266 0.48-0.19 0.933-0.49 1.358-0.9 0.092-0.092 0.2-0.159 0.323-0.202 0.123-0.049 0.249-0.073 0.379-0.073s0.256 0.021 0.379 0.064c0.123 0.043 0.231 0.11 0.323 0.202 0.099 0.098 0.172 0.208 0.222 0.33s0.074 0.248 0.074 0.376-0.025 0.254-0.074 0.376c-0.049 0.122-0.12 0.23-0.212 0.321-0.597 0.594-1.265 1.037-2.004 1.331-0.733 0.288-1.493 0.431-2.282 0.431-0.542 0-1.068-0.070-1.58-0.211-0.505-0.147-0.979-0.349-1.423-0.606-0.437-0.257-0.837-0.566-1.201-0.927-0.363-0.367-0.674-0.771-0.933-1.212-0.259-0.447-0.459-0.921-0.6-1.423-0.142-0.508-0.213-1.037-0.213-1.588 0-0.52 0.068-1.031 0.203-1.533s0.326-0.973 0.573-1.414c0.252-0.441 0.557-0.848 0.914-1.221s0.758-0.695 1.201-0.964c0.443-0.269 0.927-0.477 1.45-0.624 0.523-0.153 1.075-0.229 1.654-0.229 0.776 0 1.53 0.147 2.263 0.441s1.398 0.734 1.995 1.322z"></path>
<path fill="#0478be" style="fill: var(--color9, #0478be)" d="M73.59 19.774c0.554 0 1.087 0.073 1.598 0.22 0.518 0.141 0.998 0.34 1.441 0.597s0.85 0.569 1.219 0.936c0.369 0.361 0.684 0.765 0.943 1.212 0.258 0.441 0.458 0.915 0.6 1.423 0.147 0.508 0.221 1.037 0.221 1.588 0 0.826-0.16 1.6-0.48 2.322-0.314 0.722-0.745 1.355-1.293 1.9-0.542 0.538-1.179 0.964-1.912 1.276-0.726 0.312-1.505 0.468-2.337 0.468s-1.614-0.156-2.346-0.468c-0.727-0.312-1.361-0.737-1.903-1.276-0.536-0.545-0.961-1.178-1.275-1.9-0.308-0.722-0.462-1.496-0.462-2.322 0-0.551 0.071-1.080 0.212-1.588s0.342-0.982 0.6-1.423c0.259-0.447 0.57-0.851 0.933-1.212 0.363-0.367 0.767-0.679 1.21-0.936s0.921-0.456 1.432-0.597c0.511-0.147 1.043-0.22 1.598-0.22zM73.599 21.766c-0.554 0-1.075 0.104-1.561 0.312s-0.911 0.493-1.274 0.854c-0.358 0.361-0.641 0.783-0.85 1.267-0.203 0.483-0.305 1.001-0.305 1.551 0 0.557 0.102 1.077 0.305 1.56 0.209 0.483 0.493 0.906 0.85 1.267 0.363 0.355 0.788 0.636 1.274 0.844 0.486 0.202 1.007 0.303 1.561 0.303s1.075-0.101 1.561-0.303c0.493-0.208 0.918-0.49 1.275-0.844 0.363-0.361 0.65-0.783 0.859-1.267s0.314-1.004 0.314-1.56c0-0.551-0.105-1.068-0.314-1.551s-0.496-0.906-0.859-1.267c-0.358-0.361-0.783-0.646-1.275-0.854-0.486-0.208-1.007-0.312-1.561-0.312z"></path>
<path fill="#0478be" style="fill: var(--color9, #0478be)" d="M86.389 27.062l-0.083-0.101-2.957-3.47v7.132c0 0.141-0.027 0.272-0.083 0.395-0.049 0.116-0.12 0.217-0.212 0.303s-0.2 0.156-0.323 0.211c-0.123 0.049-0.253 0.073-0.388 0.073-0.141 0-0.274-0.024-0.397-0.073-0.117-0.055-0.222-0.125-0.314-0.211-0.086-0.086-0.157-0.187-0.213-0.303-0.049-0.122-0.074-0.254-0.074-0.395v-9.785c0-0.245 0.077-0.456 0.231-0.633 0.16-0.184 0.357-0.294 0.591-0.33 0.16-0.031 0.317-0.021 0.471 0.028 0.154 0.043 0.296 0.122 0.425 0.239l3.999 4.718 3.982-4.718c0.080-0.073 0.166-0.132 0.258-0.174s0.188-0.073 0.287-0.092c0.062-0.012 0.108-0.018 0.138-0.018h0.074c0.136 0.006 0.262 0.037 0.379 0.092s0.218 0.125 0.305 0.211c0.086 0.086 0.154 0.187 0.203 0.303 0.056 0.116 0.083 0.242 0.083 0.376v9.785c0 0.141-0.028 0.272-0.083 0.395-0.049 0.116-0.12 0.217-0.212 0.303s-0.2 0.156-0.323 0.211c-0.123 0.049-0.253 0.073-0.388 0.073s-0.264-0.024-0.387-0.073c-0.118-0.055-0.222-0.125-0.314-0.211s-0.166-0.187-0.222-0.303c-0.049-0.122-0.074-0.254-0.074-0.395v-7.141l-3.048 3.598c-0.117 0.116-0.243 0.199-0.378 0.248-0.339 0.122-0.647 0.043-0.924-0.239h-0.009v-0.009l-0.019-0.018z"></path>
<path fill="#0478be" style="fill: var(--color9, #0478be)" d="M100.047 27.062l-0.083-0.101-2.956-3.47v7.132c0 0.141-0.028 0.272-0.083 0.395-0.049 0.116-0.12 0.217-0.213 0.303s-0.2 0.156-0.323 0.211c-0.123 0.049-0.253 0.073-0.387 0.073-0.142 0-0.274-0.024-0.397-0.073-0.117-0.055-0.222-0.125-0.314-0.211-0.086-0.086-0.157-0.187-0.212-0.303-0.049-0.122-0.074-0.254-0.074-0.395v-9.785c0-0.245 0.077-0.456 0.231-0.633 0.16-0.184 0.357-0.294 0.591-0.33 0.161-0.031 0.317-0.021 0.472 0.028 0.154 0.043 0.296 0.122 0.424 0.239l4 4.718 3.981-4.718c0.080-0.073 0.166-0.132 0.259-0.174s0.188-0.073 0.287-0.092c0.061-0.012 0.108-0.018 0.138-0.018h0.074c0.136 0.006 0.262 0.037 0.378 0.092s0.219 0.125 0.305 0.211c0.086 0.086 0.154 0.187 0.203 0.303 0.055 0.116 0.083 0.242 0.083 0.376v9.785c0 0.141-0.028 0.272-0.083 0.395-0.049 0.116-0.12 0.217-0.213 0.303s-0.2 0.156-0.323 0.211c-0.123 0.049-0.253 0.073-0.388 0.073s-0.265-0.024-0.388-0.073c-0.117-0.055-0.221-0.125-0.314-0.211s-0.166-0.187-0.222-0.303c-0.049-0.122-0.074-0.254-0.074-0.395v-7.141l-3.048 3.598c-0.117 0.116-0.243 0.199-0.379 0.248-0.338 0.122-0.646 0.043-0.923-0.239h-0.010v-0.009l-0.018-0.018z"></path>
<path fill="#0478be" style="fill: var(--color9, #0478be)" d="M110.406 26.493c0 0.453 0.093 0.875 0.277 1.267s0.434 0.734 0.749 1.028c0.314 0.288 0.678 0.517 1.090 0.688 0.413 0.165 0.843 0.248 1.293 0.248s0.871-0.083 1.265-0.248c0.394-0.171 0.736-0.401 1.025-0.688 0.289-0.294 0.517-0.636 0.683-1.028 0.173-0.392 0.259-0.814 0.259-1.267v-5.654c0-0.141 0.025-0.269 0.074-0.386 0.056-0.122 0.129-0.226 0.222-0.312 0.093-0.092 0.197-0.162 0.314-0.211 0.123-0.049 0.255-0.073 0.397-0.073 0.135 0 0.264 0.024 0.387 0.073s0.228 0.119 0.314 0.211c0.093 0.086 0.163 0.19 0.212 0.312 0.056 0.116 0.083 0.245 0.083 0.386v5.654c0 0.716-0.139 1.392-0.416 2.029-0.271 0.636-0.643 1.19-1.118 1.661s-1.031 0.844-1.672 1.12c-0.634 0.275-1.315 0.413-2.042 0.413s-1.416-0.138-2.069-0.413c-0.653-0.275-1.229-0.649-1.727-1.12-0.493-0.471-0.883-1.025-1.173-1.661s-0.435-1.313-0.435-2.029v-5.636c0-0.135 0.025-0.263 0.074-0.386 0.055-0.122 0.126-0.226 0.212-0.312 0.093-0.092 0.197-0.162 0.314-0.211 0.123-0.055 0.255-0.083 0.397-0.083 0.135 0 0.264 0.028 0.387 0.083 0.123 0.049 0.231 0.119 0.323 0.211 0.093 0.086 0.163 0.19 0.212 0.312 0.056 0.122 0.083 0.251 0.083 0.386v5.636z"></path>
<path fill="#0478be" style="fill: var(--color9, #0478be)" d="M123.041 23.519v7.105c0 0.141-0.028 0.272-0.083 0.395-0.049 0.116-0.12 0.217-0.212 0.303s-0.2 0.156-0.323 0.211c-0.123 0.049-0.253 0.073-0.387 0.073-0.142 0-0.274-0.024-0.397-0.073-0.118-0.055-0.222-0.125-0.314-0.211-0.086-0.086-0.157-0.187-0.212-0.303-0.049-0.122-0.074-0.254-0.074-0.395v-9.757c0-0.263 0.086-0.487 0.258-0.67 0.080-0.104 0.182-0.187 0.305-0.248s0.269-0.092 0.435-0.092c0.147 0 0.289 0.034 0.424 0.101 0.142 0.061 0.265 0.153 0.37 0.275l6.392 7.628v-7.022c0-0.135 0.028-0.263 0.083-0.386s0.129-0.226 0.222-0.312c0.092-0.086 0.2-0.153 0.323-0.202 0.123-0.055 0.256-0.083 0.397-0.083 0.136 0 0.262 0.028 0.379 0.083 0.123 0.049 0.227 0.116 0.314 0.202 0.093 0.086 0.163 0.19 0.213 0.312s0.074 0.251 0.074 0.386v9.785c0 0.159-0.034 0.306-0.102 0.441s-0.16 0.245-0.278 0.33c-0.074 0.067-0.16 0.119-0.258 0.156-0.093 0.037-0.2 0.055-0.323 0.055h-0.056c-0.147-0.006-0.277-0.040-0.388-0.101-0.111-0.067-0.215-0.162-0.314-0.285l-6.466-7.701z"></path>
<path fill="#0478be" style="fill: var(--color9, #0478be)" d="M135.508 30.624c0 0.141-0.028 0.272-0.083 0.395-0.049 0.116-0.12 0.217-0.212 0.303s-0.2 0.156-0.323 0.211c-0.123 0.049-0.253 0.073-0.387 0.073-0.142 0-0.274-0.024-0.397-0.073-0.118-0.055-0.222-0.125-0.314-0.211-0.086-0.086-0.157-0.187-0.212-0.303-0.049-0.122-0.074-0.254-0.074-0.395v-9.785c0-0.141 0.025-0.269 0.074-0.386 0.055-0.122 0.126-0.226 0.212-0.312 0.093-0.092 0.197-0.162 0.314-0.211 0.123-0.049 0.255-0.073 0.397-0.073 0.135 0 0.264 0.024 0.387 0.073s0.231 0.119 0.323 0.211c0.093 0.086 0.163 0.19 0.212 0.312 0.056 0.116 0.083 0.245 0.083 0.386v9.785z"></path>
<path fill="#0478be" style="fill: var(--color9, #0478be)" d="M142.566 21.849v8.775c0 0.141-0.028 0.272-0.083 0.395-0.049 0.116-0.12 0.217-0.213 0.303s-0.2 0.156-0.323 0.211c-0.123 0.049-0.255 0.073-0.397 0.073-0.136 0-0.265-0.024-0.388-0.073-0.117-0.055-0.222-0.125-0.314-0.211-0.086-0.086-0.157-0.187-0.212-0.303-0.049-0.122-0.074-0.254-0.074-0.395v-8.775h-2.762c-0.141 0-0.274-0.024-0.397-0.073-0.117-0.055-0.221-0.128-0.314-0.22-0.086-0.092-0.157-0.196-0.212-0.312-0.049-0.122-0.074-0.254-0.074-0.395 0-0.135 0.025-0.263 0.074-0.386 0.055-0.122 0.126-0.226 0.212-0.312 0.093-0.092 0.197-0.162 0.314-0.211 0.123-0.055 0.256-0.083 0.397-0.083h7.528c0.136 0 0.265 0.028 0.388 0.083 0.123 0.049 0.228 0.119 0.314 0.211 0.092 0.092 0.163 0.199 0.212 0.321 0.056 0.122 0.083 0.251 0.083 0.386 0 0.141-0.028 0.272-0.083 0.395-0.049 0.116-0.12 0.22-0.212 0.312-0.086 0.086-0.191 0.156-0.314 0.211-0.123 0.049-0.253 0.073-0.388 0.073h-2.762z"></path>
<path fill="#0478be" style="fill: var(--color9, #0478be)" d="M151.85 25.089l3.612-4.892c0.093-0.104 0.197-0.184 0.314-0.239s0.237-0.086 0.36-0.092c0.129-0.012 0.255 0.003 0.378 0.046 0.124 0.037 0.237 0.098 0.342 0.184 0.203 0.171 0.32 0.389 0.351 0.652 0.038 0.257-0.040 0.514-0.231 0.771l-4.12 5.306v3.8c0 0.141-0.028 0.272-0.083 0.395-0.049 0.116-0.12 0.217-0.213 0.303-0.086 0.086-0.191 0.156-0.314 0.211-0.123 0.049-0.253 0.073-0.388 0.073-0.142 0-0.274-0.024-0.397-0.073-0.117-0.055-0.222-0.125-0.314-0.211s-0.166-0.187-0.222-0.303c-0.049-0.122-0.074-0.254-0.074-0.395v-3.791l-4.147-5.296c-0.093-0.104-0.157-0.217-0.194-0.34-0.043-0.129-0.058-0.257-0.047-0.386 0.006-0.128 0.040-0.254 0.102-0.376 0.056-0.122 0.139-0.23 0.25-0.321 0.099-0.092 0.212-0.159 0.342-0.202s0.259-0.058 0.388-0.046c0.129 0.006 0.253 0.040 0.369 0.101 0.117 0.055 0.218 0.138 0.305 0.248l3.631 4.874z"></path>
<path fill="#fff" style="fill: var(--color6, #fff)" d="M45.409 9.682c-1.403-0.872-2.726-1.215-4.049-2.087-0.82-0.555-1.958-1.875-2.911-3.011-0.185 1.822-0.741 2.562-1.376 3.090-1.35 1.056-2.197 1.373-3.361 2.007-0.979 0.502-6.299 3.671-6.299 10.485s5.743 11.832 12.122 11.832 11.91-4.622 11.91-11.621c0-6.999-5.187-10.168-6.034-10.697z"></path>
<path fill="#0678be" style="fill: var(--color8, #0678be)" d="M32.38 27.084c2.011-0.026 2.382-0.37 4.155-1.162 9.581-4.279 11.354-8.188 11.698-9.086s0.847-2.351 0.318-3.962c-0.102-0.311-0.177-0.561-0.23-0.762-1.273-1.421-2.537-2.196-2.919-2.434-1.376-0.872-2.726-1.215-4.049-2.087-0.82-0.528-1.958-1.875-2.911-3.011-0.185 1.822-0.715 2.588-1.376 3.090-1.35 1.056-2.197 1.373-3.361 2.007-0.979 0.528-6.299 3.671-6.299 10.485 0 2.176 0.586 4.168 1.59 5.873l0.262-0.009c0.556 0.502 1.429 1.083 3.123 1.056z"></path>
<path fill="#0678be" style="fill: var(--color8, #0678be)" d="M45.401 9.678c-1.376-0.872-2.726-1.215-4.049-2.087-0.82-0.528-1.958-1.875-2.911-3.011-0.185 1.822-0.715 2.588-1.376 3.090-1.35 1.056-2.197 1.373-3.361 2.007-0.979 0.528-6.299 3.671-6.299 10.485 0 2.176 0.586 4.168 1.59 5.873 2.142 3.634 6.19 5.96 10.531 5.96 6.378-0 11.91-4.622 11.91-11.621 0-3.844-1.564-6.532-3.115-8.263-1.273-1.421-2.537-2.196-2.919-2.434zM48.618 12.77c1.738 2.168 2.619 4.727 2.619 7.605 0 1.67-0.319 3.248-0.947 4.69-0.596 1.367-1.455 2.579-2.553 3.601-2.169 2.020-5.085 3.133-8.211 3.133-1.547 0-3.064-0.295-4.511-0.876-1.421-0.571-2.701-1.389-3.806-2.431-2.326-2.194-3.607-5.151-3.607-8.328 0-2.829 0.92-5.343 2.735-7.472 1.386-1.626 2.881-2.528 3.46-2.84 0.281-0.153 0.544-0.288 0.799-0.418 0.799-0.409 1.553-0.795 2.59-1.607 0.553-0.42 1.143-1.084 1.394-2.772 0.874 1.038 1.889 2.204 2.664 2.703 0.688 0.453 1.394 0.771 2.077 1.078 0.646 0.29 1.313 0.591 1.974 1.009l0.025 0.015c1.931 1.203 2.96 2.487 3.299 2.909z"></path>
<path fill="#fff" style="fill: var(--color6, #fff)" d="M38.574 5.109c0.37 1.083 0.318 1.638 0.318 1.875s-0.132 0.872-0.556 1.189c-0.185 0.132-0.238 0.238-0.238 0.264 0 0.106 0.238 0.185 0.238 0.423 0 0.291-0.132 0.872-1.535 2.271s-3.414 2.641-4.976 3.407c-1.561 0.766-2.303 0.713-2.514 0.343s0.079-1.189 1.059-2.271c0.979-1.083 4.076-2.641 4.076-2.641l3.864-2.694 0.212-1.030z"></path>
<path fill="#fff" style="fill: var(--color6, #fff)" d="M38.574 5.083c-0.238 1.743-0.767 2.271-1.482 2.826-1.191 0.898-2.355 1.453-2.62 1.585-0.688 0.343-3.176 1.717-4.473 3.698-0.397 0.607 0 0.845 0.079 0.898s0.979 0.158 2.911-1.004c1.932-1.162 2.779-1.849 3.864-2.985 0.582-0.607 0.662-0.951 0.662-1.109 0-0.185-0.132-0.264-0.344-0.317-0.106-0.026-0.132-0.079 0-0.158s0.688-0.343 0.82-0.449c0.132-0.106 0.767-0.528 0.794-1.215s-0.026-1.162-0.212-1.77z"></path>
<path fill="#0678be" style="fill: var(--color8, #0678be)" d="M48.552 12.874c0.529 1.611 0.026 3.064-0.318 3.962s-2.117 4.807-11.698 9.086c-1.773 0.792-2.144 1.136-4.155 1.162-1.694 0.026-2.567-0.555-3.123-1.056l-0.262 0.009c2.142 3.634 6.189 5.96 10.531 5.96 6.378 0 11.91-4.622 11.91-11.621 0-3.844-1.564-6.532-3.115-8.263 0.054 0.201 0.128 0.451 0.23 0.762z"></path>
<path fill="#fff" style="fill: var(--color6, #fff)" d="M32.618 24.284c0.026-2.060 1.958-3.988 4.393-4.015 3.097-0.026 5.24 3.064 6.802 3.037 1.323-0.026 3.864-2.615 5.108-2.615 1.323 0 1.694 1.373 1.694 2.192s-0.265 2.298-0.9 3.222c-0.635 0.924-1.032 1.268-1.773 1.215-0.953-0.079-2.858-3.037-4.076-3.090-1.535-0.053-4.87 3.196-7.49 3.196-1.588 0-2.064-0.238-2.594-0.581-0.794-0.555-1.191-1.4-1.165-2.562z"></path>
<path fill="#fff" style="fill: var(--color6, #fff)" d="M38.864 29.091c0.529 0.423 1.323 0.766 3.017 0.766s2.885-0.475 3.414-0.872c0.238-0.185 0.344-0.026 0.371 0.079s0.079 0.264-0.106 0.449c-0.132 0.132-1.35 0.977-2.779 1.109s-3.361 0.211-4.526-0.845c-0.185-0.185-0.132-0.449 0-0.555s0.238-0.185 0.397-0.185c0.159 0 0.132 0 0.212 0.053z"></path>
<path fill="#fff" style="fill: var(--color6, #fff)" d="M43.258 26.080c0.423 0 0.873 0.026 1.191 0.238s0.503 0.687 0.609 0.951c0.106 0.264 0 0.423-0.212 0.528-0.185 0.106-0.212 0.053-0.397-0.291s-0.344-0.687-1.27-0.687-1.217 0.317-1.667 0.687c-0.45 0.37-0.609 0.502-0.768 0.291s-0.106-0.423 0.185-0.687c0.291-0.264 0.767-0.687 1.217-0.872s0.688-0.158 1.112-0.158z"></path>
</symbol>
<symbol id="icon-Vec" viewBox="0 0 22 32">
<path stroke-linejoin="bevel" stroke-linecap="square" stroke-miterlimit="4" stroke-width="1.1034" d="M11.096 0.551v30.897M11.096 31.448l9.931-9.931M11.096 31.448l-9.931-9.931"></path>
</symbol>
</defs>
</svg>
